<mxfile host="app.diagrams.net" agent="Mozilla/5.0 (Windows NT 10.0; Win64; x64) AppleWebKit/537.36 (KHTML, like Gecko) Chrome/138.0.0.0 Safari/537.36 Edg/138.0.0.0" version="28.0.1">
  <diagram name="ページ1" id="RHtc9xqBzX8dG-IQXySC">
    <mxGraphModel dx="719" dy="499" grid="1" gridSize="10" guides="1" tooltips="1" connect="1" arrows="1" fold="1" page="1" pageScale="1" pageWidth="1169" pageHeight="827" math="0" shadow="0">
      <root>
        <mxCell id="0" />
        <mxCell id="1" parent="0" />
        <mxCell id="WyPhDyIGE4Ye550-s1A6-49" value="" style="rounded=1;whiteSpace=wrap;html=1;arcSize=3;fillColor=#F8CECC;strokeColor=none;" vertex="1" parent="1">
          <mxGeometry x="110" y="410" width="340" height="170" as="geometry" />
        </mxCell>
        <mxCell id="WyPhDyIGE4Ye550-s1A6-48" value="" style="rounded=1;whiteSpace=wrap;html=1;arcSize=8;fillColor=#D4E1F5;strokeColor=none;" vertex="1" parent="1">
          <mxGeometry x="110" y="320" width="340" height="80" as="geometry" />
        </mxCell>
        <mxCell id="WyPhDyIGE4Ye550-s1A6-47" value="" style="rounded=1;whiteSpace=wrap;html=1;arcSize=8;strokeColor=none;fillColor=#D5E8D4;" vertex="1" parent="1">
          <mxGeometry x="110" y="220" width="340" height="90" as="geometry" />
        </mxCell>
        <mxCell id="WyPhDyIGE4Ye550-s1A6-42" style="edgeStyle=orthogonalEdgeStyle;rounded=0;orthogonalLoop=1;jettySize=auto;html=1;exitX=0.5;exitY=1;exitDx=0;exitDy=0;entryX=0.5;entryY=0;entryDx=0;entryDy=0;endArrow=none;endFill=0;" edge="1" parent="1" source="WyPhDyIGE4Ye550-s1A6-2" target="WyPhDyIGE4Ye550-s1A6-32">
          <mxGeometry relative="1" as="geometry">
            <Array as="points">
              <mxPoint x="260" y="480" />
              <mxPoint x="300" y="480" />
            </Array>
          </mxGeometry>
        </mxCell>
        <mxCell id="WyPhDyIGE4Ye550-s1A6-2" value="ESXi&lt;div&gt;ホスト&lt;/div&gt;" style="rounded=0;whiteSpace=wrap;html=1;fillColor=#663300;fontStyle=1;fontColor=#FFFFFF;fontSize=7;" vertex="1" parent="1">
          <mxGeometry x="240" y="430" width="40" height="39.5" as="geometry" />
        </mxCell>
        <mxCell id="WyPhDyIGE4Ye550-s1A6-40" style="edgeStyle=orthogonalEdgeStyle;rounded=0;orthogonalLoop=1;jettySize=auto;html=1;exitX=0.25;exitY=1;exitDx=0;exitDy=0;entryX=0;entryY=0.5;entryDx=0;entryDy=0;endArrow=none;endFill=0;strokeWidth=2;strokeColor=#004C99;" edge="1" parent="1" source="WyPhDyIGE4Ye550-s1A6-12" target="WyPhDyIGE4Ye550-s1A6-15">
          <mxGeometry relative="1" as="geometry" />
        </mxCell>
        <mxCell id="WyPhDyIGE4Ye550-s1A6-41" style="edgeStyle=orthogonalEdgeStyle;rounded=0;orthogonalLoop=1;jettySize=auto;html=1;entryX=0.25;entryY=0;entryDx=0;entryDy=0;endArrow=none;endFill=0;strokeWidth=2;strokeColor=#004C99;exitX=0.5;exitY=1;exitDx=0;exitDy=0;" edge="1" parent="1" source="WyPhDyIGE4Ye550-s1A6-12" target="WyPhDyIGE4Ye550-s1A6-32">
          <mxGeometry relative="1" as="geometry">
            <mxPoint x="220" y="370" as="sourcePoint" />
            <Array as="points">
              <mxPoint x="160" y="490" />
              <mxPoint x="290" y="490" />
            </Array>
          </mxGeometry>
        </mxCell>
        <mxCell id="WyPhDyIGE4Ye550-s1A6-12" value="&lt;b&gt;&lt;font style=&quot;color: rgb(255, 255, 255);&quot;&gt;Veeam&lt;/font&gt;&lt;/b&gt;&lt;div&gt;&lt;font color=&quot;#ffffff&quot;&gt;&lt;b&gt;プロキシ&lt;/b&gt;&lt;/font&gt;&lt;/div&gt;" style="rounded=0;whiteSpace=wrap;html=1;fillColor=light-dark(#005f4b, #ededed);fontSize=7;" vertex="1" parent="1">
          <mxGeometry x="140" y="330" width="40" height="39.5" as="geometry" />
        </mxCell>
        <mxCell id="WyPhDyIGE4Ye550-s1A6-45" style="edgeStyle=orthogonalEdgeStyle;rounded=0;orthogonalLoop=1;jettySize=auto;html=1;exitX=0.5;exitY=1;exitDx=0;exitDy=0;entryX=0.75;entryY=0;entryDx=0;entryDy=0;endArrow=none;endFill=0;" edge="1" parent="1" source="WyPhDyIGE4Ye550-s1A6-13" target="WyPhDyIGE4Ye550-s1A6-32">
          <mxGeometry relative="1" as="geometry">
            <Array as="points">
              <mxPoint x="340" y="480" />
              <mxPoint x="310" y="480" />
            </Array>
          </mxGeometry>
        </mxCell>
        <mxCell id="WyPhDyIGE4Ye550-s1A6-13" value="&lt;b&gt;&lt;font style=&quot;color: rgb(255, 255, 255);&quot;&gt;vCenter&lt;/font&gt;&lt;/b&gt;" style="rounded=0;whiteSpace=wrap;html=1;fillColor=light-dark(#660033,#EDEDED);fontSize=7;" vertex="1" parent="1">
          <mxGeometry x="320" y="430" width="40" height="39.5" as="geometry" />
        </mxCell>
        <mxCell id="WyPhDyIGE4Ye550-s1A6-35" style="edgeStyle=orthogonalEdgeStyle;rounded=0;orthogonalLoop=1;jettySize=auto;html=1;exitX=1;exitY=0.25;exitDx=0;exitDy=0;entryX=0.25;entryY=1;entryDx=0;entryDy=0;endArrow=none;endFill=0;strokeWidth=2;strokeColor=#004C99;" edge="1" parent="1" source="WyPhDyIGE4Ye550-s1A6-14" target="WyPhDyIGE4Ye550-s1A6-16">
          <mxGeometry relative="1" as="geometry">
            <Array as="points">
              <mxPoint x="330" y="340" />
              <mxPoint x="330" y="304" />
              <mxPoint x="410" y="304" />
            </Array>
          </mxGeometry>
        </mxCell>
        <mxCell id="WyPhDyIGE4Ye550-s1A6-36" style="edgeStyle=orthogonalEdgeStyle;rounded=0;orthogonalLoop=1;jettySize=auto;html=1;exitX=0.75;exitY=0;exitDx=0;exitDy=0;entryX=0.5;entryY=1;entryDx=0;entryDy=0;endArrow=none;endFill=0;strokeWidth=2;strokeColor=#004C99;" edge="1" parent="1" source="WyPhDyIGE4Ye550-s1A6-14" target="WyPhDyIGE4Ye550-s1A6-18">
          <mxGeometry relative="1" as="geometry">
            <Array as="points">
              <mxPoint x="310" y="280" />
              <mxPoint x="340" y="280" />
            </Array>
          </mxGeometry>
        </mxCell>
        <mxCell id="WyPhDyIGE4Ye550-s1A6-37" style="edgeStyle=orthogonalEdgeStyle;rounded=0;orthogonalLoop=1;jettySize=auto;html=1;exitX=0.25;exitY=0;exitDx=0;exitDy=0;entryX=0.5;entryY=1;entryDx=0;entryDy=0;endArrow=none;endFill=0;strokeWidth=2;strokeColor=#004C99;" edge="1" parent="1" source="WyPhDyIGE4Ye550-s1A6-14" target="WyPhDyIGE4Ye550-s1A6-17">
          <mxGeometry relative="1" as="geometry">
            <Array as="points">
              <mxPoint x="290" y="280" />
              <mxPoint x="260" y="280" />
            </Array>
          </mxGeometry>
        </mxCell>
        <mxCell id="WyPhDyIGE4Ye550-s1A6-38" style="edgeStyle=orthogonalEdgeStyle;rounded=0;orthogonalLoop=1;jettySize=auto;html=1;exitX=0;exitY=0.5;exitDx=0;exitDy=0;entryX=1;entryY=0.5;entryDx=0;entryDy=0;endArrow=none;endFill=0;strokeWidth=2;strokeColor=#004C99;" edge="1" parent="1" source="WyPhDyIGE4Ye550-s1A6-14" target="WyPhDyIGE4Ye550-s1A6-12">
          <mxGeometry relative="1" as="geometry" />
        </mxCell>
        <mxCell id="WyPhDyIGE4Ye550-s1A6-14" value="&lt;b&gt;&lt;font style=&quot;color: rgb(255, 255, 255);&quot;&gt;VBR&lt;/font&gt;&lt;/b&gt;" style="rounded=0;whiteSpace=wrap;html=1;fillColor=light-dark(#005f4b, #ededed);fontSize=7;" vertex="1" parent="1">
          <mxGeometry x="280" y="330" width="40" height="39.5" as="geometry" />
        </mxCell>
        <mxCell id="WyPhDyIGE4Ye550-s1A6-46" style="edgeStyle=orthogonalEdgeStyle;rounded=0;orthogonalLoop=1;jettySize=auto;html=1;entryX=0.75;entryY=1;entryDx=0;entryDy=0;endArrow=none;endFill=0;strokeWidth=2;strokeColor=#004C99;" edge="1" parent="1" target="WyPhDyIGE4Ye550-s1A6-16">
          <mxGeometry relative="1" as="geometry">
            <mxPoint x="220" y="550" as="sourcePoint" />
            <Array as="points">
              <mxPoint x="220" y="560" />
              <mxPoint x="430" y="560" />
            </Array>
          </mxGeometry>
        </mxCell>
        <mxCell id="WyPhDyIGE4Ye550-s1A6-15" value="&lt;div&gt;&lt;font color=&quot;#ffffff&quot;&gt;&lt;b&gt;Veeam&lt;/b&gt;&lt;/font&gt;&lt;/div&gt;&lt;div&gt;&lt;font color=&quot;#ffffff&quot;&gt;&lt;b&gt;リポジトリ&lt;/b&gt;&lt;/font&gt;&lt;/div&gt;&lt;div&gt;&lt;font color=&quot;#ffffff&quot;&gt;&lt;b&gt;(Appliance)&lt;/b&gt;&lt;/font&gt;&lt;/div&gt;" style="rounded=0;whiteSpace=wrap;html=1;fillColor=light-dark(#005f4b, #ededed);fontSize=7;" vertex="1" parent="1">
          <mxGeometry x="200" y="510" width="40" height="39.5" as="geometry" />
        </mxCell>
        <mxCell id="WyPhDyIGE4Ye550-s1A6-16" value="&lt;font color=&quot;#ffffff&quot;&gt;&lt;b&gt;AWS&lt;/b&gt;&lt;/font&gt;&lt;div&gt;&lt;font color=&quot;#ffffff&quot;&gt;&lt;b&gt;S3&lt;/b&gt;&lt;/font&gt;&lt;/div&gt;" style="rounded=0;whiteSpace=wrap;html=1;fillColor=light-dark(#004c99, #EDEDED);fontSize=7;" vertex="1" parent="1">
          <mxGeometry x="400" y="230" width="40" height="39.5" as="geometry" />
        </mxCell>
        <mxCell id="WyPhDyIGE4Ye550-s1A6-17" value="&lt;font color=&quot;#ffffff&quot;&gt;&lt;b&gt;AWS&lt;/b&gt;&lt;/font&gt;&lt;div&gt;&lt;font color=&quot;#ffffff&quot;&gt;&lt;b&gt;Console&lt;/b&gt;&lt;/font&gt;&lt;/div&gt;" style="rounded=0;whiteSpace=wrap;html=1;fillColor=light-dark(#660033,#EDEDED);fontSize=7;" vertex="1" parent="1">
          <mxGeometry x="240" y="230" width="40" height="39.5" as="geometry" />
        </mxCell>
        <mxCell id="WyPhDyIGE4Ye550-s1A6-18" value="&lt;font color=&quot;#ffffff&quot;&gt;&lt;b&gt;Helper&lt;/b&gt;&lt;/font&gt;&lt;div&gt;&lt;font color=&quot;#ffffff&quot;&gt;&lt;b&gt;Instance&lt;/b&gt;&lt;/font&gt;&lt;/div&gt;" style="rounded=0;whiteSpace=wrap;html=1;fillColor=light-dark(#005f4b, #ededed);fontSize=7;" vertex="1" parent="1">
          <mxGeometry x="320" y="230" width="40" height="39.5" as="geometry" />
        </mxCell>
        <mxCell id="WyPhDyIGE4Ye550-s1A6-23" value="&lt;font color=&quot;#ffffff&quot;&gt;&lt;b&gt;AWS&lt;/b&gt;&lt;/font&gt;&lt;div&gt;&lt;font color=&quot;#ffffff&quot;&gt;&lt;b&gt;認証&lt;/b&gt;&lt;/font&gt;&lt;/div&gt;" style="rounded=0;whiteSpace=wrap;html=1;fillColor=light-dark(#660033,#EDEDED);fontSize=7;" vertex="1" parent="1">
          <mxGeometry x="700" y="140" width="40" height="39.5" as="geometry" />
        </mxCell>
        <mxCell id="WyPhDyIGE4Ye550-s1A6-24" value="&lt;font color=&quot;#ffffff&quot;&gt;&lt;b&gt;AWS&lt;br&gt;&lt;/b&gt;&lt;/font&gt;&lt;div&gt;&lt;font color=&quot;#ffffff&quot;&gt;&lt;b&gt;証明書認証&lt;/b&gt;&lt;/font&gt;&lt;/div&gt;" style="rounded=0;whiteSpace=wrap;html=1;fillColor=light-dark(#009900,#EDEDED);fontSize=7;" vertex="1" parent="1">
          <mxGeometry x="160" y="230" width="40" height="39.5" as="geometry" />
        </mxCell>
        <mxCell id="WyPhDyIGE4Ye550-s1A6-32" value="Pure Storage" style="rounded=0;whiteSpace=wrap;html=1;fontStyle=1;strokeColor=#000000;fillColor=#004C99;fontColor=light-dark(#ffffff, #ededed);fontSize=7;" vertex="1" parent="1">
          <mxGeometry x="280" y="510" width="40" height="40" as="geometry" />
        </mxCell>
        <mxCell id="WyPhDyIGE4Ye550-s1A6-33" value="&lt;b&gt;&lt;font style=&quot;color: rgb(255, 255, 255);&quot;&gt;Veeam&lt;/font&gt;&lt;/b&gt;&lt;div&gt;&lt;font color=&quot;#ffffff&quot;&gt;&lt;b&gt;リポジトリ&lt;/b&gt;&lt;/font&gt;&lt;/div&gt;" style="rounded=0;whiteSpace=wrap;html=1;fillColor=light-dark(#005f4b, #ededed);fontSize=7;" vertex="1" parent="1">
          <mxGeometry x="340" y="330.13" width="40" height="39.5" as="geometry" />
        </mxCell>
        <mxCell id="WyPhDyIGE4Ye550-s1A6-34" style="edgeStyle=orthogonalEdgeStyle;rounded=0;orthogonalLoop=1;jettySize=auto;html=1;exitX=0;exitY=0.25;exitDx=0;exitDy=0;entryX=0.5;entryY=1;entryDx=0;entryDy=0;endArrow=none;endFill=0;strokeWidth=2;strokeColor=#004C99;" edge="1" parent="1" source="WyPhDyIGE4Ye550-s1A6-14" target="WyPhDyIGE4Ye550-s1A6-24">
          <mxGeometry relative="1" as="geometry">
            <Array as="points">
              <mxPoint x="250" y="340" />
              <mxPoint x="250" y="305" />
              <mxPoint x="180" y="305" />
            </Array>
          </mxGeometry>
        </mxCell>
        <mxCell id="WyPhDyIGE4Ye550-s1A6-50" value="" style="rounded=1;whiteSpace=wrap;html=1;arcSize=8;strokeColor=none;fillColor=#D5E8D4;" vertex="1" parent="1">
          <mxGeometry x="110" y="150" width="340" height="59.75" as="geometry" />
        </mxCell>
        <mxCell id="WyPhDyIGE4Ye550-s1A6-5" value="&lt;div&gt;&lt;font color=&quot;#ffffff&quot;&gt;&lt;b&gt;移行対象&lt;/b&gt;&lt;/font&gt;&lt;/div&gt;&lt;b&gt;&lt;font style=&quot;color: rgb(255, 255, 255);&quot;&gt;VM&lt;/font&gt;&lt;/b&gt;" style="rounded=0;whiteSpace=wrap;html=1;fillColor=light-dark(#005f4b, #ededed);fontSize=7;" vertex="1" parent="1">
          <mxGeometry x="280" y="160.13" width="40" height="39.5" as="geometry" />
        </mxCell>
        <mxCell id="WyPhDyIGE4Ye550-s1A6-51" value="TCP:443" style="text;html=1;align=left;verticalAlign=middle;whiteSpace=wrap;rounded=0;fontSize=9;fontStyle=1" vertex="1" parent="1">
          <mxGeometry x="308" y="562" width="40" height="10" as="geometry" />
        </mxCell>
        <mxCell id="WyPhDyIGE4Ye550-s1A6-52" value="TCP:443/3260" style="text;html=1;align=left;verticalAlign=middle;whiteSpace=wrap;rounded=0;fontSize=9;fontStyle=1" vertex="1" parent="1">
          <mxGeometry x="191" y="493" width="60" height="10" as="geometry" />
        </mxCell>
        <mxCell id="WyPhDyIGE4Ye550-s1A6-55" value="TCP:443" style="text;html=1;align=left;verticalAlign=middle;whiteSpace=wrap;rounded=0;fontSize=9;fontStyle=1;rotation=63;" vertex="1" parent="1">
          <mxGeometry x="308" y="408" width="60" height="10" as="geometry" />
        </mxCell>
        <mxCell id="WyPhDyIGE4Ye550-s1A6-56" value="TCP:443/902" style="text;html=1;align=left;verticalAlign=middle;whiteSpace=wrap;rounded=0;fontSize=9;fontStyle=1;rotation=-64;" vertex="1" parent="1">
          <mxGeometry x="250" y="400" width="60" height="10" as="geometry" />
        </mxCell>
        <mxCell id="WyPhDyIGE4Ye550-s1A6-57" value="TCP:22/443" style="text;html=1;align=left;verticalAlign=middle;whiteSpace=wrap;rounded=0;fontSize=9;fontStyle=1" vertex="1" parent="1">
          <mxGeometry x="311" y="282" width="60" height="10" as="geometry" />
        </mxCell>
        <mxCell id="WyPhDyIGE4Ye550-s1A6-59" value="TCP:443" style="text;html=1;align=left;verticalAlign=middle;whiteSpace=wrap;rounded=0;fontSize=9;fontStyle=1" vertex="1" parent="1">
          <mxGeometry x="248" y="282" width="40" height="10" as="geometry" />
        </mxCell>
        <mxCell id="WyPhDyIGE4Ye550-s1A6-60" value="TCP:80/443" style="text;html=1;align=left;verticalAlign=middle;whiteSpace=wrap;rounded=0;fontSize=9;fontStyle=1" vertex="1" parent="1">
          <mxGeometry x="186" y="307" width="40" height="10" as="geometry" />
        </mxCell>
        <mxCell id="WyPhDyIGE4Ye550-s1A6-61" value="TCP:443" style="text;html=1;align=left;verticalAlign=middle;whiteSpace=wrap;rounded=0;fontSize=9;fontStyle=1" vertex="1" parent="1">
          <mxGeometry x="363" y="306" width="40" height="10" as="geometry" />
        </mxCell>
        <mxCell id="WyPhDyIGE4Ye550-s1A6-62" value="TCP:6160/&lt;span style=&quot;background-color: transparent; color: light-dark(rgb(0, 0, 0), rgb(255, 255, 255));&quot;&gt;2500-3300&lt;/span&gt;" style="text;html=1;align=center;verticalAlign=middle;whiteSpace=wrap;rounded=0;fontSize=9;fontStyle=1" vertex="1" parent="1">
          <mxGeometry x="180" y="347.75" width="100" height="19.75" as="geometry" />
        </mxCell>
        <mxCell id="WyPhDyIGE4Ye550-s1A6-64" value="TCP:445/&lt;span style=&quot;background-color: transparent; color: light-dark(rgb(0, 0, 0), rgb(255, 255, 255));&quot;&gt;2500-3300&lt;/span&gt;" style="text;html=1;align=left;verticalAlign=middle;whiteSpace=wrap;rounded=0;fontSize=9;fontStyle=1" vertex="1" parent="1">
          <mxGeometry x="112" y="530.25" width="88" height="19.75" as="geometry" />
        </mxCell>
        <mxCell id="WyPhDyIGE4Ye550-s1A6-65" style="edgeStyle=orthogonalEdgeStyle;rounded=0;orthogonalLoop=1;jettySize=auto;html=1;exitX=1;exitY=0.5;exitDx=0;exitDy=0;entryX=0.5;entryY=1;entryDx=0;entryDy=0;endArrow=none;endFill=0;strokeWidth=2;strokeColor=#004C99;" edge="1" parent="1" source="WyPhDyIGE4Ye550-s1A6-33" target="WyPhDyIGE4Ye550-s1A6-16">
          <mxGeometry relative="1" as="geometry">
            <mxPoint x="410" y="360.375" as="sourcePoint" />
            <mxPoint x="500" y="290" as="targetPoint" />
            <Array as="points">
              <mxPoint x="420" y="350" />
            </Array>
          </mxGeometry>
        </mxCell>
        <mxCell id="WyPhDyIGE4Ye550-s1A6-66" value="TCP:443" style="text;html=1;align=left;verticalAlign=middle;whiteSpace=wrap;rounded=0;fontSize=9;fontStyle=1" vertex="1" parent="1">
          <mxGeometry x="384" y="352.63" width="40" height="10" as="geometry" />
        </mxCell>
        <mxCell id="WyPhDyIGE4Ye550-s1A6-67" style="edgeStyle=orthogonalEdgeStyle;rounded=0;orthogonalLoop=1;jettySize=auto;html=1;entryX=0.5;entryY=1;entryDx=0;entryDy=0;endArrow=none;endFill=0;strokeWidth=2;strokeColor=#004C99;" edge="1" parent="1" target="WyPhDyIGE4Ye550-s1A6-33">
          <mxGeometry relative="1" as="geometry">
            <mxPoint x="170" y="370" as="sourcePoint" />
            <mxPoint x="200" y="520" as="targetPoint" />
            <Array as="points">
              <mxPoint x="170" y="380" />
              <mxPoint x="360" y="380" />
            </Array>
          </mxGeometry>
        </mxCell>
        <mxCell id="WyPhDyIGE4Ye550-s1A6-68" value="TCP:445/&lt;span style=&quot;background-color: transparent; color: light-dark(rgb(0, 0, 0), rgb(255, 255, 255));&quot;&gt;2500-3300&lt;/span&gt;" style="text;html=1;align=left;verticalAlign=middle;whiteSpace=wrap;rounded=0;fontSize=9;fontStyle=1" vertex="1" parent="1">
          <mxGeometry x="168" y="378.25" width="88" height="19.75" as="geometry" />
        </mxCell>
        <mxCell id="WyPhDyIGE4Ye550-s1A6-69" value="" style="endArrow=none;html=1;rounded=0;exitX=0.5;exitY=0;exitDx=0;exitDy=0;strokeWidth=2;strokeColor=#004C99;entryX=0.25;entryY=1;entryDx=0;entryDy=0;" edge="1" parent="1" source="WyPhDyIGE4Ye550-s1A6-2" target="WyPhDyIGE4Ye550-s1A6-14">
          <mxGeometry width="50" height="50" relative="1" as="geometry">
            <mxPoint x="290" y="440" as="sourcePoint" />
            <mxPoint x="340" y="390" as="targetPoint" />
          </mxGeometry>
        </mxCell>
        <mxCell id="WyPhDyIGE4Ye550-s1A6-72" value="" style="endArrow=none;html=1;rounded=0;exitX=0.5;exitY=0;exitDx=0;exitDy=0;strokeWidth=2;strokeColor=#004C99;entryX=0.75;entryY=1;entryDx=0;entryDy=0;" edge="1" parent="1" source="WyPhDyIGE4Ye550-s1A6-13" target="WyPhDyIGE4Ye550-s1A6-14">
          <mxGeometry width="50" height="50" relative="1" as="geometry">
            <mxPoint x="370" y="450" as="sourcePoint" />
            <mxPoint x="400" y="390" as="targetPoint" />
          </mxGeometry>
        </mxCell>
      </root>
    </mxGraphModel>
  </diagram>
</mxfile>
